<?xml version="1.0" encoding="utf-8"?>
<!-- Generator: Adobe Illustrator 21.0.0, SVG Export Plug-In . SVG Version: 6.00 Build 0)  -->
<svg version="1.1" id="Capa_1" xmlns="http://www.w3.org/2000/svg" xmlns:xlink="http://www.w3.org/1999/xlink" x="0px" y="0px"
	 viewBox="0 0 141.7 22.8" style="enable-background:new 0 0 141.7 22.8;" xml:space="preserve">
<style type="text/css">
	.st0{fill:#FFC250;}
	.st1{fill:#FFD064;}
	.st2{fill:#FFE19D;}
	.st3{fill:#F7931A;}
</style>
<g>
	<path class="st0" d="M16,19.2c-6.1,1.9-15.9,0-16-8.5c-0.1-8.4,10.4-3.4,10.4-3.4L16,19.2z"/>
	<path class="st1" d="M3,6c4.3-0.7,7.5,4.9,11.1,10.8c3.6,5.9,12.9,8.2,18.8,3.3c5.9-4.9,8.5-13.6,1.2-18.8
		c-7.3-5.2-11.9,6.6-18.1,6.9C9.6,8.5,9.5,3.8,3,6z"/>
	<circle class="st2" cx="33.4" cy="11" r="1.9"/>
	<circle class="st2" cx="29.8" cy="12.4" r="1.4"/>
	<circle class="st2" cx="32.3" cy="14.3" r="1.1"/>
	<path class="st3" d="M48.5,19V3h6.4c1.7,0,2.9,0.4,3.8,1.2C59.5,5,60,5.9,60,7.1c0,1-0.3,1.8-0.8,2.4c-0.5,0.6-1.2,1-2,1.2
		c0.9,0.2,1.7,0.6,2.3,1.4c0.6,0.7,0.9,1.5,0.9,2.5c0,1.3-0.5,2.3-1.4,3.1S56.8,19,55.1,19H48.5z M51.4,9.7h3.1
		c0.8,0,1.4-0.2,1.9-0.6C56.8,8.8,57,8.2,57,7.5c0-0.7-0.2-1.2-0.7-1.6c-0.4-0.4-1.1-0.6-1.9-0.6h-3V9.7z M51.4,16.6h3.3
		c0.9,0,1.5-0.2,2-0.6c0.5-0.4,0.7-1,0.7-1.7c0-0.7-0.3-1.3-0.8-1.8c-0.5-0.4-1.2-0.6-2-0.6h-3.2V16.6z M65.7,19.2
		c-1,0-1.8-0.2-2.4-0.5c-0.6-0.3-1.1-0.7-1.4-1.3c-0.3-0.5-0.5-1.1-0.5-1.7c0-1,0.4-1.9,1.2-2.5c0.8-0.7,2-1,3.7-1h2.9V12
		c0-0.8-0.2-1.3-0.7-1.7s-1-0.5-1.6-0.5c-0.6,0-1.1,0.1-1.5,0.4c-0.4,0.3-0.7,0.7-0.8,1.2h-2.8c0.1-0.8,0.3-1.5,0.8-2.1
		c0.5-0.6,1.1-1.1,1.9-1.4c0.8-0.3,1.6-0.5,2.5-0.5c1.6,0,2.9,0.4,3.8,1.2s1.4,1.9,1.4,3.4V19h-2.5l-0.3-1.8
		c-0.3,0.6-0.8,1.1-1.4,1.5C67.5,19,66.7,19.2,65.7,19.2z M66.4,17c0.8,0,1.5-0.3,1.9-0.8c0.5-0.5,0.8-1.2,0.9-2h-2.5
		c-0.8,0-1.3,0.1-1.7,0.4c-0.3,0.3-0.5,0.6-0.5,1c0,0.4,0.2,0.8,0.5,1C65.4,16.8,65.9,17,66.4,17z M79,19c-1.2,0-2.1-0.3-2.8-0.9
		C75.4,17.5,75,16.5,75,15v-4.9h-1.9V7.7H75l0.3-3H78v3H81v2.4H78v4.9c0,0.5,0.1,0.9,0.3,1.1c0.2,0.2,0.7,0.3,1.2,0.3h1.4V19H79z
		 M86.5,19.2c-1,0-1.8-0.2-2.4-0.5c-0.6-0.3-1.1-0.7-1.4-1.3c-0.3-0.5-0.5-1.1-0.5-1.7c0-1,0.4-1.9,1.2-2.5s2-1,3.7-1H90V12
		c0-0.8-0.2-1.3-0.7-1.7c-0.4-0.4-1-0.5-1.6-0.5c-0.6,0-1.1,0.1-1.5,0.4c-0.4,0.3-0.7,0.7-0.8,1.2h-2.8c0.1-0.8,0.3-1.5,0.8-2.1
		c0.5-0.6,1.1-1.1,1.9-1.4c0.8-0.3,1.6-0.5,2.5-0.5c1.6,0,2.9,0.4,3.8,1.2c0.9,0.8,1.4,1.9,1.4,3.4V19h-2.5l-0.3-1.8
		c-0.3,0.6-0.8,1.1-1.4,1.5C88.2,19,87.4,19.2,86.5,19.2z M87.1,17c0.8,0,1.5-0.3,1.9-0.8c0.5-0.5,0.8-1.2,0.9-2h-2.5
		c-0.8,0-1.3,0.1-1.7,0.4c-0.3,0.3-0.5,0.6-0.5,1c0,0.4,0.2,0.8,0.5,1C86.2,16.8,86.6,17,87.1,17z M99.7,19c-1.2,0-2.1-0.3-2.8-0.9
		c-0.7-0.6-1.1-1.6-1.1-3.1v-4.9h-1.9V7.7h1.9l0.3-3h2.6v3h3.1v2.4h-3.1v4.9c0,0.5,0.1,0.9,0.3,1.1c0.2,0.2,0.7,0.3,1.2,0.3h1.4V19
		H99.7z M107.2,19.2c-1,0-1.8-0.2-2.4-0.5c-0.6-0.3-1.1-0.7-1.4-1.3s-0.5-1.1-0.5-1.7c0-1,0.4-1.9,1.2-2.5c0.8-0.7,2-1,3.7-1h2.9V12
		c0-0.8-0.2-1.3-0.7-1.7c-0.4-0.4-1-0.5-1.6-0.5c-0.6,0-1.1,0.1-1.5,0.4c-0.4,0.3-0.7,0.7-0.8,1.2h-2.8c0.1-0.8,0.3-1.5,0.8-2.1
		c0.5-0.6,1.1-1.1,1.9-1.4c0.8-0.3,1.6-0.5,2.5-0.5c1.6,0,2.9,0.4,3.8,1.2c0.9,0.8,1.4,1.9,1.4,3.4V19h-2.5l-0.3-1.8
		c-0.3,0.6-0.8,1.1-1.4,1.5C108.9,19,108.2,19.2,107.2,19.2z M107.9,17c0.8,0,1.5-0.3,1.9-0.8c0.5-0.5,0.8-1.2,0.9-2h-2.5
		c-0.8,0-1.3,0.1-1.7,0.4c-0.3,0.3-0.5,0.6-0.5,1c0,0.4,0.2,0.8,0.5,1C106.9,16.8,107.3,17,107.9,17z M122.2,19.2
		c-0.8,0-1.6-0.2-2.2-0.5c-0.6-0.3-1.2-0.8-1.5-1.3l-0.3,1.5h-2.6V2.6h2.9v6.7c0.4-0.5,0.8-0.9,1.4-1.3c0.6-0.4,1.4-0.6,2.3-0.6
		c1.1,0,2,0.3,2.8,0.8c0.8,0.5,1.5,1.2,2,2.1c0.5,0.9,0.7,1.9,0.7,3.1s-0.2,2.2-0.7,3.1c-0.5,0.9-1.1,1.6-2,2.1
		C124.3,19,123.3,19.2,122.2,19.2z M121.6,16.7c0.9,0,1.7-0.3,2.3-0.9c0.6-0.6,0.9-1.4,0.9-2.4c0-1-0.3-1.8-0.9-2.4
		c-0.6-0.6-1.4-1-2.3-1c-0.9,0-1.7,0.3-2.3,1c-0.6,0.6-0.9,1.4-0.9,2.4s0.3,1.8,0.9,2.4C119.9,16.4,120.7,16.7,121.6,16.7z
		 M131.1,5.9c-0.5,0-1-0.2-1.3-0.5c-0.3-0.3-0.5-0.7-0.5-1.2s0.2-0.9,0.5-1.2c0.3-0.3,0.8-0.5,1.3-0.5c0.5,0,1,0.2,1.3,0.5
		c0.3,0.3,0.5,0.7,0.5,1.2s-0.2,0.9-0.5,1.2C132,5.8,131.6,5.9,131.1,5.9z M129.6,19V7.7h2.9V19H129.6z M139.7,19
		c-1.2,0-2.1-0.3-2.8-0.9c-0.7-0.6-1.1-1.6-1.1-3.1v-4.9h-1.9V7.7h1.9l0.3-3h2.6v3h3.1v2.4h-3.1v4.9c0,0.5,0.1,0.9,0.3,1.1
		c0.2,0.2,0.7,0.3,1.2,0.3h1.4V19H139.7z"/>
</g>
</svg>
